<svg xmlns="http://www.w3.org/2000/svg" xmlns:xlink="http://www.w3.org/1999/xlink" version="1.1" style="" xml:space="preserve" width="512" height="512"><rect id="backgroundrect" width="100%" height="100%" x="0" y="0" fill="none" stroke="none"/>

















<g class="currentLayer" style=""><title>Layer 1</title><g id="svg_7">
</g><g id="svg_8">
</g><g id="svg_9">
</g><g id="svg_10">
</g><g id="svg_11">
</g><g id="svg_12">
</g><g id="svg_13">
</g><g id="svg_14">
</g><g id="svg_15">
</g><g id="svg_16">
</g><g id="svg_17">
</g><g id="svg_18">
</g><g id="svg_19">
</g><g id="svg_20">
</g><g id="svg_21">
</g><g class="" transform="rotate(-34.50834655761719 276.23120117187494,253.6878662109375) " id="svg_1" fill-opacity="1" fill="#c5b69b"><g class="" id="svg_22" fill="#c5b69b">
	<g id="svg_24" fill="#c5b69b">
		<path d="M497.91961035776035,243.733370089563 c-3.2148963918390763,-4.4575843742240355 -79.87086450236686,-109.160752041141 -178.2935407475181,-109.160752041141 c-75.44457083273525,0 -138.0948195676927,61.519313268973995 -164.6883423907308,92.25214929952465 c-17.824079355977663,-18.80750150031108 -51.041397331167,-46.87526351971814 -90.55976919113994,-46.87526351971814 H47.36207287100956 v146.69350518969165 h17.016779177493042 c39.25731798165898,0 72.29851399099951,-27.699425725347638 90.20752525944232,-46.50245712500266 c26.383428092203275,30.591580849819106 89.25539381970134,92.66250453975104 165.03969230229723,92.66250453975104 c98.42267624515125,0 175.07864435567905,-104.70406168704818 178.2935407475181,-109.160752041141 L505.10038005165666,253.68828425061082 L497.91961035776035,243.733370089563 zM81.39473720586442,289.88000720234317 v-73.14515105525747 c13.910059221530641,4.354772059134633 26.44779754165055,13.131367687244815 35.53193609489773,20.844973379343685 c6.512042635749675,5.53130255180989 11.992386040080468,11.129656613460694 16.09862050273811,15.680219081330801 C122.60101907356601,264.76161759580515 103.39836067525913,283.0148266147647 81.39473720586442,289.88000720234317 zM424.86386131562404,291.8191368669425 c-45.25619306209285,38.805837815396806 -82.20783312535556,46.95036121073996 -105.23779170538185,46.95036121073996 c-65.01135590148886,0 -122.38956792268795,-60.73793967429454 -142.78931927668796,-85.1053523706143 c7.703771470655539,-9.230757854765978 20.70997633953064,-23.667394933580606 37.5524215914373,-38.109396133182514 c45.25619306209285,-38.805837815396806 82.20783312535556,-46.95036121073996 105.23779170538185,-46.95036121073996 c65.00509776057037,0 122.37883968111339,60.72721143271999 142.7875312364255,85.10624639074551 C454.7098293760122,262.9413926086571 441.7027304870058,277.3798177277341 424.86386131562404,291.8191368669425 z" id="svg_3" fill="#c5b69b"/>
	</g>
</g><g class="" id="svg_26" fill="#c5b69b">
	<g id="svg_28" fill="#c5b69b">
		<circle cx="376.3480529785156" cy="253.69094848632812" r="17.016780853271484" id="svg_6" fill="#c5b69b"/>
	</g>
</g></g></g></svg>